<svg xmlns="http://www.w3.org/2000/svg" xmlns:xlink="http://www.w3.org/1999/xlink" preserveAspectRatio="xMidYMid meet" width="1080" height="1080" viewBox="0 0 1080 1080" style="width:100%;height:100%"><defs><animateMotion repeatCount="indefinite" dur="2s" begin="0s" xlink:href="#_R_G_L_1_G" fill="freeze" keyTimes="0;0.4833333;0.9833333;1" path="M400.64 846.72 C437.82,846.72 623.72,846.72 623.72,846.72 C623.72,846.72 437.82,846.72 400.64,846.72 C400.64,846.72 400.64,846.72 400.64,846.72 " keyPoints="0;0.5;1;1" keySplines="0.333 0 0.667 1;0.333 0 0.667 1;0 0 0 0" calcMode="spline"/><animateTransform repeatCount="indefinite" dur="2s" begin="0s" xlink:href="#_R_G_L_1_G" fill="freeze" attributeName="transform" from="1 1" to="1 1" type="scale" additive="sum" keyTimes="0;0.25;0.4833333;0.75;0.9833333;1" values="1 1;1.2 1.2;1 1;0.6 0.6;1 1;1 1" keySplines="0.333 0 0.667 1;0.333 0 0.667 1;0.333 0 0.667 1;0.333 0 0.667 1;0 0 0 0" calcMode="spline"/><animateTransform repeatCount="indefinite" dur="2s" begin="0s" xlink:href="#_R_G_L_1_G" fill="freeze" attributeName="transform" from="-63.978 -63.98" to="-63.978 -63.98" type="translate" additive="sum" keyTimes="0;1" values="-63.978 -63.98;-63.978 -63.98" keySplines="0 0 1 1" calcMode="spline"/><animateMotion repeatCount="indefinite" dur="2s" begin="0s" xlink:href="#_R_G_L_0_G" fill="freeze" keyTimes="0;0.4833333;0.9833333;1" path="M623.72 846.72 C586.54,846.72 400.64,846.72 400.64,846.72 C400.64,846.72 586.54,846.72 623.72,846.72 C623.72,846.72 623.72,846.72 623.72,846.72 " keyPoints="0;0.5;1;1" keySplines="0.333 0 0.667 1;0.333 0 0.667 1;0 0 0 0" calcMode="spline"/><animateTransform repeatCount="indefinite" dur="2s" begin="0s" xlink:href="#_R_G_L_0_G" fill="freeze" attributeName="transform" from="1 1" to="1 1" type="scale" additive="sum" keyTimes="0;0.25;0.4833333;0.75;0.9833333;1" values="1 1;0.6 0.6;1 1;1.2 1.2;1 1;1 1" keySplines="0.333 0 0.667 1;0.333 0 0.667 1;0.333 0 0.667 1;0.333 0 0.667 1;0 0 0 0" calcMode="spline"/><animateTransform repeatCount="indefinite" dur="2s" begin="0s" xlink:href="#_R_G_L_0_G" fill="freeze" attributeName="transform" from="-63.977 -63.98" to="-63.977 -63.98" type="translate" additive="sum" keyTimes="0;1" values="-63.977 -63.98;-63.977 -63.98" keySplines="0 0 1 1" calcMode="spline"/><animate attributeType="XML" attributeName="opacity" dur="2s" from="0" to="1" xlink:href="#time_group"/></defs><g id="_R_G"><g id="_R_G_L_2_G" transform=" translate(540, 445.061) translate(-212.406, -275.76)"><path id="_R_G_L_2_G_D_0_P_0" fill="#1e00ff" fill-opacity="1" fill-rule="nonzero" d=" M112.93 0.26 C112.93,0.26 112.93,206.19 112.93,206.19 C142.47,169.93 182.62,151.8 233.38,151.8 C290.38,151.8 336.5,169.81 371.72,205.84 C406.94,241.82 424.56,290.41 424.56,351.53 C424.56,411.12 407.09,459.29 372.1,496.08 C337.14,532.89 291.39,551.27 234.96,551.27 C179.51,551.27 137.03,532.38 107.5,494.53 C107.5,494.53 100.5,543.5 100.5,543.5 C100.5,543.5 0.25,543.5 0.25,543.5 C0.25,543.5 0.25,0.25 0.25,0.25 C0.25,0.25 112.93,0.25 112.93,0.25 C112.93,0.25 112.93,0.26 112.93,0.26 C112.93,0.26 112.93,0.26 112.93,0.26z  M145.57 279.27 C124.85,296.87 114.47,320.96 114.47,351.53 C114.47,385.23 124.6,410.09 144.8,426.14 C165.02,442.19 189.37,450.24 217.83,450.24 C246.85,450.24 269.77,440.9 286.61,422.27 C303.47,403.61 311.85,380.04 311.85,351.52 C311.85,322.52 303.33,298.81 286.24,280.43 C269.12,262.02 246.35,252.84 217.83,252.84 C190.37,252.84 166.28,261.64 145.57,279.27z "/></g><g id="_R_G_L_1_G"><path id="_R_G_L_1_G_D_0_P_0" fill="#1e00ff" fill-opacity="1" fill-rule="nonzero" d=" M20.07 17.37 C33.3,5.99 47.88,0.25 63.99,0.25 C80.05,0.25 94.69,5.99 107.88,17.37 C121.11,28.78 127.71,44.29 127.71,63.99 C127.71,83.66 121.11,99.21 107.88,110.64 C94.69,122.05 80.05,127.71 63.99,127.71 C47.88,127.71 33.3,122.05 20.07,110.64 C6.85,99.21 0.25,83.66 0.25,63.99 C0.25,44.29 6.85,28.78 20.07,17.37z "/></g><g id="_R_G_L_0_G"><path id="_R_G_L_0_G_D_0_P_0" fill="#1e00ff" fill-opacity="1" fill-rule="nonzero" d=" M20.05 17.37 C33.27,5.99 47.88,0.25 63.99,0.25 C80.04,0.25 94.69,5.99 107.88,17.37 C121.1,28.78 127.7,44.29 127.7,63.99 C127.7,83.66 121.1,99.21 107.88,110.64 C94.69,122.05 80.04,127.71 63.99,127.71 C47.88,127.71 33.27,122.05 20.05,110.64 C6.85,99.21 0.25,83.66 0.25,63.99 C0.25,44.29 6.85,28.78 20.05,17.37z "/></g></g><g id="time_group"/></svg>
